<svg width="244" height="54" viewBox="0 0 244 54" fill="none" xmlns="http://www.w3.org/2000/svg">
                        <path d="M182.069 44.5412C182.069 46.2952 181.549 48.0098 180.575 49.4681C179.6 50.9265 178.215 52.0632 176.595 52.7344C174.974 53.4056 173.191 53.5813 171.471 53.2391C169.75 52.8969 168.17 52.0523 166.93 50.812C165.69 49.5718 164.845 47.9916 164.503 46.2713C164.161 44.551 164.336 42.7679 165.008 41.1474C165.679 39.5269 166.815 38.1419 168.274 37.1674C169.732 36.193 171.447 35.6729 173.201 35.6729C174.366 35.6724 175.519 35.9016 176.595 36.3471C177.671 36.7926 178.649 37.4458 179.473 38.2694C180.296 39.093 180.949 40.0708 181.395 41.1469C181.84 42.2231 182.07 43.3765 182.069 44.5412Z" fill="white"/>
                        <path d="M181.489 44.5414C181.489 46.1818 181.002 47.7854 180.091 49.1493C179.18 50.5132 177.884 51.5763 176.369 52.204C174.853 52.8317 173.186 52.996 171.577 52.676C169.968 52.3559 168.49 51.566 167.33 50.4061C166.17 49.2462 165.38 47.7684 165.06 46.1595C164.74 44.5506 164.904 42.883 165.532 41.3675C166.16 39.852 167.223 38.5567 168.587 37.6453C169.951 36.734 171.554 36.2476 173.195 36.2476C175.394 36.2476 177.504 37.1214 179.059 38.6768C180.615 40.2322 181.489 42.3418 181.489 44.5414Z" fill="#A32C31"/>
                        <mask id="mask0_3972_3064" style="mask-type:luminance" maskUnits="userSpaceOnUse" x="165" y="37" width="16" height="16">
                        <path d="M168.36 42.3294C168.489 42.3314 168.615 42.3762 168.716 42.4569C168.818 42.5376 168.889 42.6496 168.92 42.7754C168.952 42.9012 168.94 43.0338 168.888 43.1524C168.836 43.2711 168.746 43.3691 168.632 43.4312C168.518 43.4932 168.387 43.5159 168.259 43.4955C168.131 43.4752 168.013 43.4131 167.924 43.3188C167.835 43.2246 167.78 43.1035 167.767 42.9745C167.754 42.8455 167.784 42.7159 167.853 42.6059C167.799 42.6288 167.742 42.6433 167.684 42.6489C167.444 44.1848 168.968 43.8776 168.968 43.8776C169.53 43.7394 172.421 40.4679 172.421 40.4679L172.199 40.2682C171.858 39.9611 172.064 39.9856 172.064 39.9856L173.536 41.3096L173.081 41.2912C171.65 43.294 170.347 43.9237 169.819 44.108C167.361 44.6486 167.361 43.0206 167.361 43.0206L165.598 44.4183C169.082 47.1368 170.427 48.6543 170.943 49.4222C170.954 49.2752 171.02 49.1376 171.128 49.0372C171.236 48.9367 171.378 48.8809 171.525 48.8809C171.673 48.8809 171.815 48.9367 171.923 49.0372C172.031 49.1376 172.097 49.2752 172.107 49.4222C172.108 49.4986 172.094 49.5743 172.065 49.6451C172.036 49.7159 171.994 49.7803 171.94 49.8346C171.887 49.8889 171.823 49.9319 171.752 49.9613C171.682 49.9907 171.606 50.0059 171.53 50.0059C171.421 50.0093 171.315 49.9804 171.223 49.9229C171.247 49.975 171.262 50.0313 171.266 50.0888C172.802 50.3192 172.479 48.7956 172.479 48.7956C172.335 48.2365 169.042 45.3736 169.042 45.3736L168.845 45.5948C168.538 45.9388 168.566 45.733 168.566 45.733L169.914 44.2862V44.2524L170.022 44.277V44.7193C171.791 46.074 172.479 47.272 172.722 47.8495C173.268 50.3315 171.637 50.3069 171.637 50.3069L173.035 52.0701C175.754 48.5867 177.271 47.2413 178.039 46.7252C177.924 46.724 177.812 46.6888 177.717 46.6241C177.622 46.5593 177.548 46.4679 177.504 46.3614C177.461 46.2548 177.45 46.1378 177.473 46.0251C177.496 45.9124 177.552 45.8089 177.633 45.7278C177.715 45.6467 177.819 45.5914 177.932 45.5691C178.044 45.5467 178.161 45.5582 178.268 45.6021C178.374 45.6459 178.465 45.7203 178.529 45.8157C178.594 45.9111 178.628 46.0234 178.629 46.1385C178.63 46.2469 178.6 46.3534 178.543 46.4457C178.595 46.4214 178.651 46.4059 178.709 46.3996C178.939 44.8637 177.415 45.1862 177.415 45.1862C176.856 45.3306 173.993 48.6236 173.993 48.6236L174.215 48.8232C174.559 49.1304 174.353 49.1028 174.353 49.1028L173.081 47.9201L173.01 47.6836L173.253 47.8341C174.142 46.6901 175.235 45.7196 176.475 44.9712H176.497C179.053 44.3937 179.025 46.0586 179.025 46.0586L180.801 44.6763C177.336 41.9086 176.015 40.3819 175.492 39.6262C175.49 39.7412 175.454 39.853 175.388 39.9474C175.322 40.0418 175.23 40.1147 175.123 40.1569C175.016 40.1991 174.899 40.2087 174.786 40.1846C174.674 40.1605 174.571 40.1036 174.491 40.0212C174.411 39.9388 174.356 39.8345 174.335 39.7215C174.314 39.6084 174.327 39.4916 174.372 39.3857C174.417 39.2798 174.492 39.1896 174.588 39.1264C174.684 39.0632 174.797 39.0297 174.912 39.0303C175.034 39.0269 175.155 39.0533 175.265 39.1071C175.248 39.0482 175.216 38.9944 175.173 38.9504C173.637 38.7108 173.944 40.2345 173.944 40.2345C174.086 40.7966 177.357 43.6841 177.357 43.6841L177.557 43.466C177.864 43.125 177.836 43.3278 177.836 43.3278L176.475 44.7623L176.439 44.3998C175.286 43.6162 174.344 42.5613 173.695 41.328C172.881 39.0242 174.995 38.7139 174.995 38.7139L173.401 37.0244C170.654 40.4863 169.128 41.8195 168.357 42.3325" fill="white"/>
                        </mask>
                        <g mask="url(#mask0_3972_3064)">
                        <path d="M180.8 37.021H165.604V52.0759H180.8V37.021Z" fill="url(#paint0_linear_3972_3064)"/>
                        </g>
                        <mask id="mask1_3972_3064" style="mask-type:luminance" maskUnits="userSpaceOnUse" x="169" y="41" width="8" height="7">
                        <path d="M169.911 44.0679C169.975 44.1617 170.019 44.2677 170.039 44.3793C170.06 44.4909 170.057 44.6056 170.031 44.716C170.031 44.716 171.954 46.1137 172.731 47.8462C172.731 47.8462 172.799 47.5083 173.253 47.8247C174.133 46.672 175.227 45.6999 176.476 44.9618L176.442 44.3935C175.305 43.592 174.367 42.5413 173.699 41.3217L173.536 41.3002L173.081 41.2817C173.081 41.2817 171.668 43.389 169.911 44.0648" fill="white"/>
                        </mask>
                        <g mask="url(#mask1_3972_3064)">
                        <path d="M176.473 41.2852H169.911V47.8496H176.473V41.2852Z" fill="url(#paint1_linear_3972_3064)"/>
                        </g>
                        <path d="M174.786 44.747C174.792 44.7281 174.792 44.7075 174.786 44.6886C174.667 44.5417 174.575 44.3754 174.512 44.1972C174.491 44.1019 174.482 43.89 174.623 43.8408C174.764 43.7917 174.835 43.9913 174.804 44.1111C174.773 44.2309 174.952 44.2739 174.979 44.1603C175.01 44.0896 175.019 44.0111 175.004 43.9353C174.989 43.8595 174.952 43.7901 174.896 43.7364C174.794 43.6678 174.67 43.6424 174.549 43.6657C174.382 43.6206 174.22 43.561 174.064 43.4876C173.962 43.4261 173.864 43.3309 173.904 43.2019C173.914 43.1599 173.939 43.1232 173.975 43.0997C174.011 43.0762 174.055 43.0677 174.098 43.0759C174.199 43.1036 174.193 43.2172 174.193 43.3063C174.197 43.3275 174.208 43.3466 174.225 43.3604C174.241 43.3742 174.262 43.3817 174.283 43.3817C174.305 43.3817 174.326 43.3742 174.342 43.3604C174.359 43.3466 174.37 43.3275 174.374 43.3063C174.374 43.1159 174.331 42.9131 174.113 42.8916C174.045 42.8847 173.976 42.8968 173.914 42.9267C173.852 42.9565 173.8 43.0028 173.763 43.0606C173.763 43.0606 173.763 43.0606 173.741 43.0606C173.583 43.1454 173.407 43.1907 173.228 43.1927C173.157 43.1994 173.086 43.1855 173.022 43.1527C173.002 43.1415 172.984 43.1261 172.971 43.1075C172.957 43.0889 172.947 43.0675 172.942 43.0448C172.937 43.0221 172.937 42.9986 172.942 42.9759C172.947 42.9532 172.956 42.9318 172.97 42.9131C173.072 42.8916 173.124 42.9131 173.127 42.9991C173.13 43.0852 173.333 43.0637 173.302 42.95C173.262 42.7872 173.13 42.609 172.94 42.6981C172.878 42.7341 172.828 42.7879 172.796 42.8525C172.765 42.9171 172.754 42.9896 172.764 43.0606C172.645 43.1784 172.542 43.3117 172.457 43.4568C172.431 43.5104 172.394 43.5582 172.348 43.5972C172.303 43.6363 172.25 43.6658 172.193 43.6842C172.163 43.691 172.132 43.6906 172.102 43.6832C172.072 43.6757 172.044 43.6613 172.021 43.6412C171.991 43.5834 171.984 43.5163 172.003 43.4538C172.003 43.3985 172.046 43.3647 172.116 43.3524C172.19 43.4446 172.319 43.3155 172.245 43.2265C171.987 42.9039 171.631 43.5613 171.938 43.7978L171.978 43.8285C172.001 44.0008 172.001 44.1754 171.978 44.3477C171.957 44.4583 171.907 44.5811 171.769 44.575C171.683 44.575 171.527 44.4367 171.634 44.3569C171.742 44.277 171.634 44.1265 171.542 44.1972C171.278 44.3937 171.499 44.7685 171.794 44.7562C171.815 44.7579 171.837 44.7579 171.858 44.7562C171.926 44.877 172.001 44.9939 172.083 45.1064C172.154 45.1928 172.195 45.3012 172.196 45.4136C172.196 45.4781 172.147 45.5887 172.058 45.5703C172.03 45.5703 171.938 45.4627 171.996 45.4412C172.104 45.3952 171.996 45.2385 171.904 45.2815C171.812 45.3245 171.769 45.558 171.837 45.6563C171.888 45.7107 171.956 45.7464 172.03 45.7575C172.104 45.7686 172.18 45.7546 172.245 45.7177C172.296 45.6876 172.335 45.641 172.356 45.5856H172.371C172.567 45.586 172.76 45.6368 172.93 45.7331C172.977 45.7723 173.011 45.8232 173.031 45.8804C173.051 45.9377 173.056 45.9992 173.044 46.0587C173.045 46.0977 173.034 46.1362 173.013 46.1693L172.897 46.2307C172.826 46.2307 172.866 46.0894 172.878 46.0556C172.881 46.0339 172.875 46.012 172.863 45.9939C172.851 45.9758 172.832 45.9626 172.811 45.9567C172.79 45.9508 172.768 45.9526 172.748 45.9617C172.728 45.9708 172.712 45.9867 172.703 46.0064C172.654 46.1631 172.657 46.3536 172.847 46.4058C172.891 46.4152 172.936 46.4151 172.979 46.4054C173.022 46.3958 173.063 46.3769 173.098 46.3501C173.134 46.3232 173.163 46.289 173.184 46.2499C173.204 46.2107 173.217 46.1675 173.219 46.1232C173.219 46.0925 173.219 46.0648 173.219 46.0372C173.233 46.0324 173.245 46.0251 173.256 46.0157C173.41 45.8632 173.59 45.7394 173.787 45.6501C173.91 45.5948 174.113 45.5426 174.174 45.7331C174.188 45.7982 174.177 45.8659 174.144 45.9235C174.098 46.0279 174.03 46.0372 173.941 45.9481C173.941 45.8314 173.769 45.8344 173.757 45.9481C173.754 45.9898 173.761 46.0316 173.779 46.0696C173.796 46.1076 173.823 46.1404 173.857 46.165C173.891 46.1896 173.931 46.2052 173.972 46.2102C174.014 46.2153 174.056 46.2096 174.095 46.1938C174.183 46.1578 174.257 46.0932 174.305 46.0103C174.353 45.9274 174.372 45.8309 174.359 45.7361C174.352 45.7013 174.342 45.6673 174.328 45.6348C174.333 45.6208 174.333 45.6057 174.328 45.5918C174.325 45.4188 174.362 45.2475 174.436 45.091C174.475 45.005 174.552 44.9037 174.66 44.9037C174.694 44.9047 174.726 44.918 174.75 44.9412C174.775 44.9644 174.79 44.9958 174.793 45.0295C174.796 45.0631 174.787 45.0968 174.767 45.1239C174.747 45.1511 174.717 45.17 174.684 45.1771C174.571 45.2016 174.62 45.3767 174.733 45.3521C174.815 45.3595 174.896 45.3342 174.959 45.2817C175.022 45.2293 175.061 45.1541 175.068 45.0726C175.076 44.9911 175.05 44.9101 174.998 44.8473C174.945 44.7845 174.87 44.7451 174.789 44.7378M174.282 44.9774C174.21 45.126 174.164 45.2861 174.147 45.4504C174.074 45.4163 173.993 45.4035 173.913 45.4136C173.636 45.4736 173.383 45.6135 173.185 45.816C173.084 45.5088 172.7 45.4289 172.368 45.3982C172.372 45.3604 172.372 45.3224 172.368 45.2846C172.313 45.045 172.119 44.8791 172.018 44.6702C172.193 44.5043 172.184 44.1449 172.162 43.89C172.451 43.89 172.657 43.4507 172.841 43.2449C173.026 43.4661 173.456 43.3831 173.707 43.2756C173.707 43.5828 174.104 43.7057 174.383 43.7978C174.33 43.9151 174.312 44.0452 174.331 44.1726C174.377 44.3771 174.47 44.5684 174.601 44.7316C174.535 44.7487 174.473 44.78 174.42 44.8235C174.367 44.8671 174.324 44.9217 174.294 44.9835" fill="#A32C31"/>
                        <path d="M174.66 43.4167C174.66 43.4534 174.645 43.4885 174.619 43.5144C174.593 43.5404 174.558 43.5549 174.522 43.5549C174.485 43.5549 174.449 43.5405 174.423 43.5146C174.396 43.4888 174.381 43.4536 174.38 43.4167C174.381 43.3795 174.396 43.344 174.423 43.3176C174.449 43.2913 174.484 43.2762 174.522 43.2754C174.559 43.2762 174.594 43.2914 174.62 43.3178C174.645 43.3443 174.66 43.3797 174.66 43.4167Z" fill="#A32C31"/>
                        <path d="M175.072 44.5908C175.067 44.6243 175.05 44.6549 175.024 44.677C174.998 44.6991 174.966 44.7113 174.932 44.7113C174.898 44.7113 174.865 44.6991 174.84 44.677C174.814 44.6549 174.797 44.6243 174.792 44.5908C174.789 44.5707 174.79 44.5502 174.796 44.5307C174.802 44.5112 174.812 44.4931 174.825 44.4777C174.838 44.4624 174.855 44.45 174.873 44.4416C174.891 44.4331 174.912 44.4287 174.932 44.4287C174.952 44.4287 174.972 44.4331 174.991 44.4416C175.009 44.45 175.026 44.4624 175.039 44.4777C175.052 44.4931 175.062 44.5112 175.068 44.5307C175.073 44.5502 175.075 44.5707 175.072 44.5908Z" fill="#A32C31"/>
                        <path d="M174.642 45.7027C174.641 45.7399 174.626 45.7754 174.6 45.8017C174.573 45.8281 174.538 45.8432 174.501 45.844C174.464 45.8432 174.428 45.8279 174.403 45.8015C174.377 45.7751 174.362 45.7396 174.362 45.7027C174.362 45.666 174.377 45.6309 174.403 45.6049C174.429 45.579 174.464 45.5645 174.501 45.5645C174.537 45.5644 174.573 45.5789 174.599 45.6047C174.626 45.6306 174.641 45.6657 174.642 45.7027Z" fill="#A32C31"/>
                        <path d="M173.588 46.3047C173.587 46.342 173.572 46.3775 173.546 46.4038C173.52 46.4301 173.484 46.4453 173.447 46.446C173.41 46.4452 173.375 46.43 173.349 46.4036C173.323 46.3772 173.309 46.3417 173.309 46.3047C173.309 46.2681 173.323 46.2329 173.349 46.207C173.375 46.1811 173.41 46.1665 173.447 46.1665C173.484 46.1665 173.519 46.181 173.546 46.2068C173.572 46.2326 173.587 46.2678 173.588 46.3047Z" fill="#A32C31"/>
                        <path d="M172.402 46.0769C172.402 46.1135 172.388 46.1487 172.362 46.1746C172.336 46.2005 172.301 46.2151 172.264 46.2151C172.227 46.2151 172.191 46.2006 172.165 46.1748C172.139 46.1489 172.123 46.1138 172.123 46.0769C172.123 46.0396 172.138 46.0041 172.165 45.9778C172.191 45.9515 172.227 45.9363 172.264 45.9355C172.301 45.9364 172.336 45.9516 172.362 45.978C172.388 46.0044 172.402 46.0399 172.402 46.0769Z" fill="#A32C31"/>
                        <path d="M171.61 45.1555C171.61 45.1736 171.606 45.1916 171.599 45.2084C171.592 45.2251 171.582 45.2404 171.569 45.2532C171.556 45.266 171.541 45.2762 171.524 45.2832C171.508 45.2901 171.49 45.2937 171.471 45.2937C171.434 45.2937 171.399 45.2792 171.373 45.2534C171.346 45.2276 171.331 45.1924 171.33 45.1555C171.331 45.1182 171.346 45.0827 171.372 45.0564C171.399 45.0301 171.434 45.0149 171.471 45.0142C171.508 45.015 171.543 45.0302 171.569 45.0566C171.595 45.083 171.61 45.1185 171.61 45.1555Z" fill="#A32C31"/>
                        <path d="M171.622 43.9268C171.621 43.964 171.606 43.9995 171.58 44.0259C171.553 44.0522 171.518 44.0673 171.481 44.0681C171.444 44.0673 171.408 44.0521 171.383 44.0256C171.357 43.9992 171.342 43.9638 171.342 43.9268C171.342 43.8901 171.357 43.855 171.383 43.8291C171.409 43.8031 171.444 43.7886 171.481 43.7886C171.517 43.7886 171.553 43.803 171.579 43.8289C171.606 43.8547 171.621 43.8899 171.622 43.9268Z" fill="#A32C31"/>
                        <path d="M172.415 43.0056C172.414 43.0425 172.399 43.0777 172.372 43.1035C172.346 43.1293 172.31 43.1438 172.273 43.1438C172.24 43.1388 172.209 43.122 172.187 43.0963C172.165 43.0707 172.153 43.0379 172.153 43.004C172.153 42.9701 172.165 42.9374 172.187 42.9117C172.209 42.8861 172.24 42.8692 172.273 42.8643C172.311 42.8643 172.347 42.8791 172.373 42.9056C172.4 42.9321 172.415 42.9681 172.415 43.0056Z" fill="#A32C31"/>
                        <path d="M173.619 42.7844C173.618 42.8216 173.603 42.8571 173.576 42.8834C173.55 42.9097 173.514 42.9249 173.477 42.9257C173.44 42.9257 173.404 42.9108 173.377 42.8843C173.351 42.8578 173.336 42.8218 173.336 42.7844C173.336 42.7469 173.351 42.7109 173.377 42.6844C173.404 42.658 173.44 42.6431 173.477 42.6431C173.514 42.6439 173.55 42.659 173.576 42.6853C173.603 42.7116 173.618 42.7471 173.619 42.7844Z" fill="#A32C31"/>
                        <path fill-rule="evenodd" clip-rule="evenodd" d="M148.832 48.0769V41.5093H151.038C151.407 41.4944 151.776 41.5626 152.116 41.709C152.387 41.8414 152.61 42.0565 152.752 42.3234C152.904 42.5866 152.985 42.8854 152.985 43.1896C152.985 43.467 152.914 43.7396 152.779 43.9822C152.638 44.2418 152.425 44.4551 152.165 44.5965C152.498 44.6966 152.787 44.9067 152.985 45.1924C153.18 45.4861 153.279 45.8325 153.271 46.1846C153.274 46.4805 153.214 46.7736 153.096 47.0447C153.002 47.2799 152.854 47.4901 152.666 47.6591C152.476 47.8102 152.258 47.921 152.024 47.9847C151.713 48.0619 151.394 48.0981 151.074 48.0922L148.832 48.0769ZM149.612 44.2709H150.881C151.131 44.2825 151.382 44.2566 151.624 44.1941C151.807 44.1404 151.965 44.024 152.07 43.8654C152.176 43.6931 152.228 43.4932 152.22 43.291C152.225 43.0894 152.176 42.8902 152.079 42.7135C151.993 42.5539 151.851 42.4323 151.68 42.3725C151.388 42.2973 151.087 42.2662 150.786 42.2804H149.612V44.2709ZM149.612 47.3089H151.074C151.252 47.3137 151.43 47.3024 151.606 47.2751C151.766 47.2477 151.919 47.187 152.054 47.097C152.188 47.0034 152.293 46.8762 152.362 46.7284C152.441 46.555 152.48 46.366 152.475 46.1754C152.481 45.9497 152.422 45.7271 152.306 45.5334C152.199 45.3562 152.034 45.2216 151.839 45.1525C151.561 45.0676 151.27 45.0302 150.979 45.0419H149.621L149.612 47.3089ZM155.995 48.0769V45.3122L153.728 41.5247H154.665L155.827 43.5122C156.042 43.8808 156.244 44.2494 156.441 44.618C156.619 44.274 156.837 43.89 157.089 43.4599L158.229 41.5247H159.15L156.803 45.3122V48.0769H155.995Z" fill="#5B5752"/>
                        <path fill-rule="evenodd" clip-rule="evenodd" d="M240.301 46.3629L240.329 46.3997C240.488 46.5902 240.69 46.7395 240.919 46.8347C241.148 46.9299 241.397 46.9683 241.644 46.9465C242.183 46.9217 242.708 46.7724 243.18 46.5103C243.286 46.4581 243.389 46.3986 243.487 46.3322L243.825 46.0956L244 46.4642L243.945 46.541C243.76 46.7728 243.555 46.9867 243.33 47.18C243.087 47.3938 242.826 47.586 242.55 47.7544C242.294 47.9077 242.018 48.0236 241.73 48.0984C241.429 48.175 241.119 48.2132 240.808 48.2121C240.489 48.2166 240.172 48.1742 239.865 48.0862C239.602 48.0094 239.36 47.8751 239.156 47.693C238.982 47.5383 238.829 47.3629 238.698 47.1708C238.569 46.9858 238.466 46.7844 238.391 46.5718C238.169 45.912 238.136 45.2034 238.296 44.5259C238.438 43.8523 238.773 43.2345 239.26 42.7474C239.591 42.4226 239.981 42.1641 240.409 41.9855C240.833 41.8135 241.287 41.7268 241.745 41.7306C242.154 41.7277 242.556 41.8337 242.909 42.0378C243.257 42.2491 243.578 42.5018 243.865 42.7904L243.985 42.9009L240.301 46.3629ZM240.043 45.6349L241.37 44.3723C241.529 44.2135 241.628 44.0055 241.653 43.7826C241.673 43.6512 241.664 43.5172 241.628 43.3894C241.601 43.273 241.541 43.1666 241.456 43.0822C241.364 42.9965 241.247 42.9436 241.122 42.9317C241.018 42.9186 240.913 42.9291 240.814 42.9624C240.583 43.0647 240.4 43.2515 240.301 43.4846C240.161 43.7885 240.071 44.1132 240.034 44.4461C239.974 44.838 239.974 45.2368 240.034 45.6287" fill="#5B5752"/>
                        <path fill-rule="evenodd" clip-rule="evenodd" d="M235.144 43.371C234.907 43.371 234.64 43.6505 234.505 43.8133C234.166 44.237 233.881 44.7014 233.657 45.1956V46.839C233.672 47.0298 233.646 47.2214 233.58 47.4012C233.479 47.5832 233.332 47.7356 233.153 47.8435C233.011 47.9394 232.856 48.0148 232.693 48.0678C232.508 48.1254 232.319 48.1665 232.127 48.1906L231.921 48.2275V43.3126C231.925 43.2713 231.914 43.23 231.891 43.1959C231.862 43.1744 231.828 43.1625 231.792 43.1621H231.768C231.642 43.1699 231.52 43.2113 231.415 43.2819L231.233 42.7075C231.606 42.406 231.996 42.126 232.401 41.8689C232.471 41.8239 232.546 41.7877 232.625 41.7613C232.696 41.7349 232.771 41.7204 232.846 41.7183C232.986 41.718 233.122 41.7609 233.236 41.8412C233.346 41.9252 233.428 42.0395 233.473 42.1699C233.553 42.4786 233.604 42.7944 233.623 43.1129C233.623 43.3187 233.645 43.5246 233.648 43.7273C233.725 43.6106 233.808 43.4969 233.891 43.3833C233.973 43.2696 234.087 43.1252 234.198 42.9962C234.305 42.8703 234.413 42.7505 234.529 42.6307C234.646 42.5109 234.766 42.3972 234.889 42.2866C235.011 42.172 235.144 42.0692 235.285 41.9794C235.414 41.8986 235.553 41.8327 235.697 41.7828L235.804 41.7552L235.915 41.7275C235.992 41.7142 236.07 41.707 236.148 41.706C236.278 41.7017 236.408 41.7271 236.526 41.7803C236.645 41.8336 236.75 41.9132 236.833 42.0132C236.988 42.2002 237.094 42.4231 237.14 42.6614C237.176 42.8352 237.194 43.0123 237.193 43.1897V46.922C237.193 47.0664 237.248 47.1094 237.389 47.0571C237.606 46.9598 237.808 46.8315 237.988 46.6762L238.2 47.1124C237.779 47.5578 237.208 48.1691 236.526 48.1691C236.386 48.1693 236.248 48.1398 236.12 48.0826C235.993 48.0255 235.879 47.9419 235.786 47.8374C235.59 47.6185 235.481 47.3356 235.479 47.0418V43.97C235.48 43.8218 235.443 43.6757 235.371 43.5461C235.324 43.4562 235.245 43.3871 235.15 43.3525L235.144 43.371Z" fill="#5B5752"/>
                        <path fill-rule="evenodd" clip-rule="evenodd" d="M229.655 47.0325C228.644 48.0462 227.197 48.3994 225.784 48.3994C224.48 48.435 223.201 48.0291 222.156 47.2475C221.709 46.8771 221.345 46.4158 221.09 45.8941C220.835 45.3724 220.694 44.8023 220.676 44.2218C220.676 44.0682 220.676 43.9146 220.676 43.7579C220.641 43.0952 220.74 42.4323 220.967 41.8088C221.195 41.1853 221.545 40.614 221.998 40.1291C222.451 39.6442 222.998 39.2557 223.604 38.9866C224.211 38.7176 224.866 38.5737 225.529 38.5635C225.652 38.5635 225.772 38.5635 225.895 38.5635C229.083 38.5635 231.012 40.0594 231.012 43.1896C231.012 44.5719 230.705 46.0095 229.67 47.0417M222.543 43.4845C222.543 45.558 223.929 47.5362 225.922 47.5362C227.916 47.5362 229.301 45.5549 229.301 43.4845C229.301 41.4141 227.919 39.4328 225.922 39.4328C223.926 39.4328 222.543 41.4141 222.543 43.4845Z" fill="#5B5752"/>
                        <path fill-rule="evenodd" clip-rule="evenodd" d="M195.889 46.3628L195.917 46.4027C196.077 46.5918 196.279 46.7401 196.508 46.8352C196.737 46.9303 196.985 46.9695 197.232 46.9495C197.77 46.9247 198.296 46.7754 198.768 46.5133C198.874 46.4601 198.977 46.3995 199.075 46.3321L199.413 46.0986L199.591 46.4673L199.532 46.541C199.348 46.7727 199.142 46.9866 198.918 47.1799C198.675 47.394 198.414 47.5863 198.138 47.7543C197.882 47.9077 197.606 48.0235 197.318 48.0984C197.017 48.1764 196.707 48.2147 196.396 48.212C196.077 48.2166 195.76 48.1741 195.453 48.0861C195.191 48.0096 194.949 47.8764 194.743 47.696C194.571 47.5388 194.416 47.3626 194.283 47.1707C194.155 46.9859 194.052 46.7856 193.975 46.5748C193.753 45.915 193.722 45.206 193.883 44.5289C194.024 43.8551 194.358 43.2369 194.845 42.7504C195.175 42.4237 195.565 42.164 195.994 41.9855C196.418 41.8149 196.872 41.7283 197.33 41.7305C197.738 41.7276 198.14 41.8336 198.494 42.0377C198.842 42.2492 199.162 42.5019 199.449 42.7903L199.569 42.904L195.889 46.3628ZM195.631 45.6348L196.958 44.3723C197.117 44.2134 197.216 44.0054 197.241 43.7825C197.26 43.6512 197.252 43.5172 197.216 43.3893C197.188 43.274 197.129 43.1681 197.047 43.0821C196.953 42.9983 196.835 42.9467 196.709 42.9347C196.606 42.9206 196.501 42.9301 196.402 42.9623C196.171 43.0667 195.988 43.2542 195.889 43.4876C195.749 43.7904 195.658 44.1141 195.622 44.446C195.562 44.8379 195.562 45.2367 195.622 45.6286" fill="#5B5752"/>
                        <path fill-rule="evenodd" clip-rule="evenodd" d="M205.216 45.7945L203.065 48.4024L200.814 44.234L200.411 43.5367L199.797 42.6459L199.917 42.5199C200.083 42.338 200.264 42.1695 200.457 42.0161C200.568 41.9271 200.811 41.7305 200.961 41.7305C201.043 41.7371 201.123 41.7601 201.195 41.7981C201.268 41.8361 201.333 41.8883 201.385 41.9516C201.534 42.1181 201.663 42.3016 201.769 42.4984C202.049 42.993 202.313 43.4998 202.577 44.0067C202.804 44.4429 203.028 44.8791 203.271 45.3091C203.363 45.4715 203.465 45.6275 203.578 45.776L203.664 45.8866L204.567 44.1664C204.316 43.7573 204.006 43.3878 203.646 43.0698C203.587 43.0329 203.529 42.996 203.474 42.953L203.326 42.8486L203.449 42.7227C203.687 42.4731 203.938 42.2372 204.202 42.0161C204.344 41.8794 204.518 41.7811 204.709 41.7305C204.79 41.7375 204.869 41.7607 204.941 41.7987C205.014 41.8367 205.078 41.8887 205.13 41.9516C205.279 42.1181 205.408 42.3016 205.514 42.4984C205.796 42.993 206.057 43.4998 206.321 44.0067C206.549 44.4429 206.776 44.8791 207.016 45.3091C207.107 45.4715 207.21 45.6275 207.323 45.776C207.361 45.8293 207.402 45.8806 207.446 45.9296C207.611 45.6606 207.752 45.378 207.87 45.0849C208.015 44.7841 208.119 44.4647 208.177 44.1357C208.153 43.8436 208.047 43.5643 207.87 43.3309C207.677 43.0432 207.423 42.8019 207.126 42.6244L207.046 42.5752V42.3909L207.117 42.3418C207.281 42.2143 207.433 42.0724 207.572 41.9178C207.737 41.7393 207.915 41.572 208.103 41.4171C208.157 41.3748 208.213 41.3358 208.272 41.3004C208.327 41.2683 208.389 41.2494 208.453 41.2451C208.51 41.2481 208.566 41.2638 208.616 41.2912C208.672 41.3167 208.725 41.3465 208.776 41.3803C209.006 41.5296 209.203 41.7252 209.353 41.9547C209.525 42.2105 209.654 42.4928 209.734 42.7902L209.75 42.8455L206.841 48.3994L205.216 45.7945Z" fill="#5B5752"/>
                        <path fill-rule="evenodd" clip-rule="evenodd" d="M217.831 47.8369C217.751 47.8922 217.671 47.9414 217.588 47.9905C217.511 48.0344 217.431 48.0733 217.349 48.1073C217.271 48.1417 217.189 48.1684 217.106 48.1871C217.028 48.2031 216.949 48.2113 216.87 48.2117C216.705 48.2161 216.541 48.1835 216.39 48.1165C216.253 48.0492 216.138 47.9422 216.062 47.8093C215.988 47.6814 215.935 47.5424 215.905 47.3977C215.869 47.2342 215.852 47.0673 215.853 46.9V41.1035C215.849 40.7305 215.894 40.3587 215.988 39.9977C216.063 39.697 216.199 39.4148 216.387 39.1683C216.591 38.9178 216.87 38.7391 217.183 38.6584C217.495 38.5816 217.817 38.5475 218.138 38.557L219.757 38.5386L219.628 38.772C219.46 39.0878 219.201 39.3458 218.885 39.5123C218.588 39.6519 218.266 39.7313 217.939 39.7458C217.882 39.7479 217.826 39.753 217.77 39.7612L217.656 39.7796C217.653 39.7948 217.653 39.8105 217.656 39.8257L217.607 46.5836C217.604 46.6217 217.612 46.6598 217.628 46.6942C217.642 46.7108 217.658 46.7242 217.678 46.7332C217.697 46.7423 217.718 46.7468 217.739 46.7464C217.843 46.749 217.948 46.7324 218.046 46.6973C218.323 46.6075 218.584 46.4748 218.82 46.3041L218.851 46.2826L218.879 46.3041C219.004 46.4147 219.13 46.5222 219.266 46.6113L219.299 46.6389L219.18 46.7618C219.019 46.9169 218.85 47.0626 218.673 47.198C218.399 47.413 218.12 47.6281 217.837 47.8308L217.831 47.8369Z" fill="#5B5752"/>
                        <path fill-rule="evenodd" clip-rule="evenodd" d="M211.577 46.3628L211.605 46.4027C211.765 46.5918 211.967 46.7401 212.196 46.8352C212.425 46.9303 212.673 46.9695 212.92 46.9495C213.458 46.9238 213.984 46.7746 214.455 46.5133C214.561 46.4586 214.664 46.3981 214.763 46.3321L215.097 46.0986L215.276 46.4673L215.217 46.541C215.033 46.7727 214.827 46.9866 214.603 47.1799C214.361 47.3947 214.1 47.587 213.823 47.7543C213.567 47.9077 213.291 48.0235 213.002 48.0984C212.702 48.1764 212.392 48.2147 212.081 48.212C211.762 48.2166 211.444 48.1741 211.138 48.0861C210.876 48.0083 210.634 47.8752 210.428 47.696C210.256 47.5396 210.102 47.3632 209.971 47.1707C209.843 46.9858 209.74 46.7856 209.663 46.5748C209.443 45.9147 209.411 45.2062 209.571 44.5289C209.714 43.856 210.048 43.2385 210.533 42.7504C210.863 42.4244 211.253 42.1647 211.682 41.9855C212.107 41.8149 212.562 41.7284 213.021 41.7305C213.428 41.7276 213.829 41.8336 214.182 42.0377C214.53 42.25 214.852 42.5026 215.14 42.7903L215.257 42.904L211.577 46.3628ZM211.319 45.6348L212.646 44.3723C212.804 44.2129 212.905 44.0054 212.932 43.7825C212.948 43.651 212.94 43.5177 212.907 43.3893C212.877 43.2737 212.818 43.1679 212.735 43.0821C212.641 42.9978 212.523 42.946 212.397 42.9347C212.294 42.9206 212.189 42.9301 212.09 42.9623C211.859 43.0667 211.676 43.2542 211.577 43.4876C211.438 43.791 211.348 44.1144 211.31 44.446C211.253 44.8382 211.253 45.2365 211.31 45.6287" fill="#5B5752"/>
                        <path fill-rule="evenodd" clip-rule="evenodd" d="M192.664 46.3475V40.0533C192.656 39.9305 192.675 39.8074 192.721 39.6931C192.767 39.5788 192.837 39.4762 192.928 39.3929C193.132 39.244 193.359 39.1308 193.601 39.0581L193.96 38.9168V38.7232L193.794 38.6618C193.704 38.6289 193.61 38.6052 193.515 38.5911C193.407 38.5737 193.298 38.5624 193.189 38.5574C193.071 38.5512 192.954 38.5512 192.836 38.5574C192.719 38.5574 192.606 38.585 192.492 38.6065H192.473C192.225 38.6574 191.986 38.7455 191.764 38.8676C191.549 38.9838 191.357 39.1366 191.196 39.3192C191.039 39.4993 190.918 39.7079 190.839 39.9335C190.757 40.1589 190.715 40.3971 190.716 40.637V46.971C190.719 47.3316 190.652 47.6893 190.52 48.0247C190.077 48.8786 188.929 49.2995 187.804 49.2933C185.264 49.2933 184.284 46.9803 186.102 45.9143L186.053 45.7331H185.746C185.441 45.7314 185.145 45.8405 184.914 46.0403C184.663 46.2659 184.479 46.556 184.382 46.8789C184.334 47.028 184.299 47.1812 184.278 47.3366V48.0247C184.29 48.1281 184.309 48.2306 184.333 48.3319C184.373 48.4967 184.426 48.6581 184.493 48.8141C184.737 49.3707 185.16 49.8301 185.694 50.1196C186.294 50.4329 186.964 50.5882 187.641 50.5712H187.688C188.365 50.5694 189.038 50.4659 189.684 50.264C190.265 50.084 190.805 49.793 191.275 49.407C191.715 49.0445 192.068 48.5879 192.308 48.0708C192.542 47.5395 192.664 46.9651 192.664 46.3843V46.3628V46.3475Z" fill="#5B5752"/>
                        <path d="M221.351 6.08833L215.026 17.7796L208.468 29.8949C208.01 30.7611 207.78 31.2987 207.78 31.4983C207.78 31.9806 208.265 32.2171 209.239 32.2171V32.5243H202.739V32.2171C203.499 32.2422 204.254 32.082 204.939 31.7502C205.528 31.443 206.186 30.629 206.895 29.3204L222.786 0L239.122 28.319C239.122 28.4665 239.518 29.1515 240.32 30.3771C241.122 31.6028 242.338 32.2202 243.978 32.2202V32.5274H233.765V32.2202C234.686 32.2202 235.162 31.953 235.162 31.4185C235.162 29.9256 222.479 8.25088 221.357 6.0914" fill="#5B5752"/>
                        <path d="M160.637 0.568285V15.5403H165.208C168.82 15.5403 171.487 14.9259 173.231 13.6757C174.976 12.4255 175.845 10.8005 175.845 8.7823C175.845 6.81327 174.995 4.9579 173.281 3.19775C171.566 1.43761 168.544 0.568285 164.225 0.568285H160.637ZM152.484 0.307181V0H164.876C168.028 0 170.289 0.0522208 171.714 0.156662C173.19 0.274166 174.64 0.614917 176.014 1.16729C177.486 1.73864 178.601 2.50967 179.35 3.49265C180.119 4.53229 180.515 5.80052 180.475 7.09281C180.475 8.73111 179.806 10.2803 178.469 11.7405C177.13 13.2211 175.243 14.459 172.801 15.4788L175.885 18.9531C176.567 19.8214 178.356 21.7279 181.252 24.6728C184.152 27.6125 186.403 29.4095 187.985 30.0484C189.445 30.6733 191.014 31.0052 192.602 31.0253C194.064 31.0253 195.745 30.6085 197.643 29.7751L197.824 30.2143C195.453 31.6478 192.371 32.3646 188.578 32.3646C186.053 32.3646 183.872 31.8147 182.057 30.715C180.241 29.6153 177.068 26.6019 172.534 21.6778C172.518 21.6688 172.503 21.656 172.493 21.6406C172.482 21.6251 172.475 21.6073 172.473 21.5887L168.058 16.6216L164.176 16.7106H160.637V28.9641C160.637 29.9532 160.809 30.6597 161.162 31.0898C161.516 31.5198 162.391 31.7287 163.739 31.7287V32.0359H152.484V31.7287C153.873 31.6826 154.736 31.4676 155.068 31.0744C155.4 30.6812 155.587 29.8856 155.587 28.6846V3.21004C155.614 2.49847 155.464 1.79127 155.151 1.15193C154.844 0.608218 153.962 0.328684 152.484 0.313325" fill="#5B5752"/>
                        <path d="M67.5796 32.039V31.7318C68.9588 31.7318 69.8404 31.5444 70.2582 31.1666C70.676 30.7887 70.8726 30.1406 70.8726 29.2283V2.9858C70.8726 2.06426 70.7098 1.38846 70.3964 0.973764C70.0831 0.559069 69.0971 0.340971 67.5059 0.307181V0H79.2525V0.307181C78.165 0.307181 77.4094 0.408551 76.9701 0.614362C76.6112 0.752663 76.3079 1.00527 76.1069 1.33317C75.9748 1.60963 75.9042 2.23321 75.9042 3.20697V25.7049C75.9042 27.636 76.537 28.9948 77.8026 29.7812C79.0682 30.5676 81.2379 30.9638 84.3117 30.97H89.6567C92.2309 30.97 94.1159 30.5051 95.3119 29.5754C96.5078 28.6456 97.1775 26.8978 97.3208 24.3318H97.7478V32.039H67.5796Z" fill="#5B5752"/>
                        <path d="M60.5884 0V0.307181C59.9473 0.269758 59.3043 0.33509 58.6839 0.500705C57.9835 0.676822 57.5678 0.931782 57.4367 1.26559C57.3046 1.59734 57.2432 2.3868 57.2432 3.63395V28.2607C57.2432 29.5969 57.3139 30.4109 57.4644 30.7181C57.6582 31.0556 57.9634 31.3151 58.3276 31.4523C58.7453 31.6519 59.5041 31.7594 60.5884 31.7594V32.0666H48.9155V31.7594C50.3869 31.7594 51.3115 31.5506 51.6648 31.1451C52.0181 30.7396 52.2024 29.7873 52.2024 28.3221V3.9227C52.2024 2.3868 51.9996 1.40382 51.6034 0.927687C51.2071 0.451556 50.3071 0.251888 48.9155 0.313325V0H60.5884Z" fill="#5B5752"/>
                        <path d="M41.494 27.0043V32.039H0L34.0971 1.20415H11.2152C9.32909 1.20415 8.0205 1.38231 7.32012 1.73864C6.61975 2.09497 6.12519 2.96737 5.83951 4.36811H5.4156L5.64906 0H41.6752L7.57815 30.8379H36.616C38.2993 30.8379 39.4267 30.586 40.0134 30.073C40.6001 29.56 40.9349 28.5371 41.067 27.0012L41.494 27.0043Z" fill="#5B5752"/>
                        <path d="M123.385 6.08833L117.064 17.7796L110.502 29.8949C110.045 30.7611 109.811 31.2987 109.811 31.4983C109.811 31.9806 110.3 32.2171 111.273 32.2171V32.5243H104.764V32.2171C105.524 32.2422 106.279 32.082 106.964 31.7502C107.55 31.443 108.211 30.629 108.92 29.3204L124.82 0L141.156 28.319C141.156 28.4665 141.552 29.1515 142.351 30.3771C143.149 31.6028 144.372 32.2202 146.012 32.2202V32.5274H135.793V32.2202C136.722 32.2202 137.188 31.953 137.19 31.4185C137.19 29.9256 124.504 8.25088 123.385 6.0914" fill="#5B5752"/>
                        <path d="M0 46.2829H1.06592C1.06842 46.5749 1.15075 46.8606 1.30398 47.1091C1.45721 47.3577 1.67551 47.5595 1.93524 47.6929C2.50455 48.0267 3.30527 48.1936 4.33739 48.1936C5.07618 48.2311 5.81328 48.0922 6.48766 47.7881C6.70685 47.6982 6.89537 47.5469 7.03053 47.3523C7.16569 47.1578 7.24172 46.9283 7.24947 46.6915C7.25861 46.4909 7.2128 46.2916 7.11698 46.1151C7.02116 45.9386 6.87897 45.7917 6.70576 45.6901C6.34329 45.4597 5.61834 45.2539 4.53399 45.0757L3.42814 44.8945C2.24037 44.6897 1.42122 44.4327 0.970692 44.1235C0.747188 43.9827 0.565116 43.7851 0.443127 43.5508C0.321138 43.3166 0.263619 43.0541 0.276463 42.7903C0.276463 42.1759 0.621529 41.6762 1.31166 41.2912C2.17281 40.8789 3.12251 40.6858 4.07629 40.7291C5.30502 40.7291 6.25113 40.9318 6.93922 41.3435C7.25429 41.5077 7.51876 41.7546 7.70435 42.0576C7.88994 42.3606 7.98967 42.7084 7.99285 43.0637H6.91157C6.90884 42.8036 6.83608 42.5492 6.70093 42.327C6.56579 42.1048 6.37327 41.9232 6.14362 41.8012C5.49206 41.4681 4.76398 41.3134 4.03329 41.3527C3.35184 41.3187 2.67224 41.4494 2.05197 41.7336C1.84334 41.8256 1.66587 41.9762 1.54102 42.167C1.41618 42.3578 1.34931 42.5807 1.34852 42.8087C1.34441 42.976 1.38458 43.1413 1.46496 43.2881C1.54534 43.4348 1.66307 43.5577 1.80622 43.6443C2.27475 43.9048 2.79073 44.0688 3.3237 44.1265L4.68144 44.3508C6.02689 44.5719 6.96686 44.8515 7.51057 45.1924C7.76109 45.3319 7.9691 45.5366 8.11245 45.7849C8.2558 46.0332 8.32912 46.3157 8.3246 46.6024C8.3246 47.2905 7.96725 47.8332 7.25254 48.2305C6.53783 48.6277 5.56305 48.8254 4.32818 48.8233C2.94382 48.8233 1.87688 48.6093 1.12735 48.1813C0.78594 48.0108 0.499594 47.7473 0.301249 47.4213C0.102904 47.0952 0.000613925 46.7198 0.00614362 46.3382L0 46.2829Z" fill="#5B5752"/>
                        <path d="M11.0187 40.9258H9.91895V48.6115H11.0187V40.9258Z" fill="#5B5752"/>
                        <path d="M13.187 48.6115V40.9258H14.2867V47.9787H20.2245V48.6115H13.187Z" fill="#5B5752"/>
                        <path d="M22.7957 48.6115L18.7686 40.9258H19.8621L23.3824 47.7176L26.8904 40.9258H27.9686L23.9415 48.6115H22.7957Z" fill="#5B5752"/>
                        <path d="M28.749 48.6115V40.9258H36.364V41.5555H29.8149V44.3601H35.805V44.9683H29.8149V47.9787H36.5637V48.6115H28.749Z" fill="#5B5752"/>
                        <path d="M38.0352 48.6111V40.9316H41.9149C42.5669 40.921 43.2191 40.9456 43.8685 41.0053C44.2288 41.0443 44.5834 41.1247 44.9252 41.2449C45.334 41.3824 45.6987 41.6262 45.9819 41.9514C46.225 42.2377 46.357 42.6019 46.3536 42.9774C46.3588 43.1989 46.3187 43.4192 46.2357 43.6246C46.1528 43.8301 46.0288 44.0165 45.8713 44.1724C45.4802 44.5309 44.9957 44.7716 44.4737 44.8666C44.8527 44.9246 45.2069 45.091 45.4935 45.3458C45.6993 45.5608 45.8437 45.997 45.9266 46.6513L46.0772 47.8032C46.0922 47.959 46.1348 48.1109 46.2031 48.2517C46.2581 48.3606 46.3435 48.4513 46.4488 48.5128V48.6173H45.2631C45.1946 48.5241 45.1417 48.4203 45.1065 48.3101C45.0584 48.1551 45.0265 47.9955 45.0112 47.834L44.8761 46.8172C44.7993 46.1137 44.6088 45.6683 44.3078 45.4748C44.0068 45.2813 43.4047 45.1861 42.4985 45.1861H39.1011V48.6234L38.0352 48.6111ZM39.1011 44.541H42.1913C43.2746 44.541 44.0549 44.4191 44.532 44.1754C44.7542 44.0736 44.941 43.9079 45.0684 43.6994C45.1959 43.491 45.2584 43.2492 45.2478 43.0051C45.2507 42.7601 45.1718 42.5212 45.0235 42.3262C44.8556 42.1098 44.6329 41.9422 44.3784 41.8409C44.1316 41.7348 43.871 41.6645 43.6043 41.632C43.1146 41.5809 42.6222 41.5604 42.1299 41.5705H39.1011V44.541Z" fill="#5B5752"/>
                        <path d="M53.3789 48.6112V40.9316H57.2555C57.9086 40.9209 58.5618 40.9455 59.2123 41.0054C59.5715 41.0443 59.9251 41.1247 60.2659 41.245C60.6755 41.3824 61.0412 41.6263 61.3257 41.9515C61.5676 42.2384 61.6993 42.6022 61.6974 42.9775C61.7018 43.1989 61.6614 43.4189 61.5785 43.6243C61.4956 43.8296 61.372 44.0161 61.2151 44.1724C60.8236 44.5304 60.3392 44.771 59.8174 44.8666C60.1908 44.9244 60.5396 45.0886 60.8219 45.3397C61.0277 45.5547 61.1721 45.9909 61.2581 46.6452L61.4086 47.7971C61.4221 47.9532 61.4649 48.1053 61.5346 48.2456C61.5896 48.3545 61.6749 48.4452 61.7803 48.5067V48.6112H60.6069C60.5361 48.5189 60.482 48.4149 60.4471 48.304C60.4003 48.1488 60.3694 47.9893 60.355 47.8278L60.2198 46.8111C60.14 46.1076 59.9495 45.6622 59.6515 45.4687C59.3536 45.2752 58.7484 45.1799 57.8422 45.1799H54.4448V48.6173L53.3789 48.6112ZM54.4448 44.541H57.5166C58.6041 44.541 59.3853 44.4192 59.8604 44.1755C60.0846 44.0729 60.2727 43.9053 60.4004 43.6943C60.528 43.4834 60.5893 43.239 60.5762 42.9928C60.578 42.7475 60.498 42.5087 60.3488 42.3139C60.1829 42.0969 59.9609 41.9291 59.7068 41.8286C59.4599 41.723 59.1993 41.6527 58.9327 41.6197C58.442 41.5687 57.9485 41.5482 57.4552 41.5583H54.4295L54.4448 44.541Z" fill="#5B5752"/>
                        <path d="M63.3438 48.6115V40.9258H70.9588V41.5555H64.4097V44.3601H70.3997V44.9683H64.4097V47.9787H71.1554V48.6115H63.3438Z" fill="#5B5752"/>
                        <path d="M75.3638 40.926H76.1532C76.8713 40.9147 77.5894 40.9475 78.3035 41.0243C78.7242 41.0756 79.1369 41.1788 79.5322 41.3315C80.2021 41.5923 80.7743 42.055 81.1695 42.6554C81.5509 43.3098 81.7475 44.0555 81.7383 44.8129C81.7291 45.5703 81.5145 46.311 81.1173 46.956C80.6673 47.5827 80.0275 48.048 79.2926 48.283C78.8941 48.4137 78.4818 48.4983 78.0639 48.5349C77.5724 48.5871 76.8352 48.6117 75.8184 48.6117H72.6299V40.9321L75.3638 40.926ZM73.6958 47.9912H75.9474C76.826 47.9912 77.468 47.9697 77.8735 47.9267C78.2195 47.8973 78.5603 47.823 78.8872 47.7055C79.4331 47.5072 79.897 47.132 80.205 46.6396C80.4848 46.072 80.6304 45.4477 80.6304 44.8149C80.6304 44.1821 80.4848 43.5578 80.205 42.9903C79.9171 42.5059 79.4793 42.1285 78.9578 41.9151C78.6233 41.7762 78.2705 41.6862 77.9103 41.6479C77.2129 41.5841 76.5125 41.5585 75.8123 41.5711H73.6804L73.6958 47.9912Z" fill="#5B5752"/>
                        <path d="M83.4028 48.6115V40.9258H91.0178V41.5555H84.4688V44.3601H90.4588V44.9683H84.4688V47.9787H91.2175V48.6115H83.4028Z" fill="#5B5752"/>
                        <path d="M92.689 48.6115V40.9258H100.052V41.5555H93.7549V44.3386H99.4685V44.9683H93.7549V48.6115H92.689Z" fill="#5B5752"/>
                        <path d="M102.537 40.9258H101.44V48.6115H102.537V40.9258Z" fill="#5B5752"/>
                        <path d="M104.709 48.6115V40.9258H105.885L112.459 47.5148V40.9258H113.494V48.6115H112.309L105.76 42.0132V48.6115H104.709Z" fill="#5B5752"/>
                        <path d="M115.595 48.6115V40.9258H123.21V41.5555H116.664V44.3601H122.651V44.9683H116.664V47.9787H123.41V48.6115H115.595Z" fill="#5B5752"/>
                        <path d="M127.615 40.926H128.402C129.12 40.9147 129.838 40.9475 130.552 41.0243C130.973 41.0753 131.385 41.1785 131.78 41.3315C132.451 41.593 133.024 42.0555 133.421 42.6555C133.802 43.3099 133.999 44.0555 133.99 44.8129C133.98 45.5703 133.766 46.311 133.369 46.956C132.917 47.5813 132.278 48.0462 131.544 48.283C131.145 48.4135 130.733 48.498 130.315 48.5349C129.827 48.5871 129.087 48.6117 128.073 48.6117H124.884V40.9322L127.615 40.926ZM125.95 47.9912H128.202C129.08 47.9912 129.722 47.9697 130.128 47.9267C130.473 47.8974 130.813 47.823 131.138 47.7055C131.685 47.5066 132.15 47.1316 132.459 46.6396C132.742 46.0732 132.89 45.4495 132.893 44.8167C132.895 44.1839 132.752 43.559 132.475 42.9903C132.186 42.5066 131.748 42.1294 131.228 41.9151C130.893 41.7766 130.54 41.6866 130.18 41.6479C129.483 41.5843 128.782 41.5587 128.082 41.5711H125.944L125.95 47.9912Z" fill="#5B5752"/>
                        <path d="M141.917 51.8678C141.91 51.9381 141.877 52.0032 141.825 52.0505C141.772 52.0978 141.704 52.1239 141.633 52.1239C141.563 52.1239 141.494 52.0978 141.442 52.0505C141.39 52.0032 141.356 51.9381 141.349 51.8678V37.6853C141.356 37.615 141.39 37.55 141.442 37.5027C141.494 37.4554 141.563 37.4292 141.633 37.4292C141.704 37.4292 141.772 37.4554 141.825 37.5027C141.877 37.55 141.91 37.615 141.917 37.6853V51.8678Z" fill="#5B5752"/>
                        <defs>
                        <linearGradient id="paint0_linear_3972_3064" x1="165.572" y1="44.7489" x2="180.768" y2="44.7489" gradientUnits="userSpaceOnUse">
                        <stop stop-color="#CA893C"/>
                        <stop offset="0.17" stop-color="#E7B262"/>
                        <stop offset="0.32" stop-color="#FED481"/>
                        <stop offset="0.68" stop-color="#FCEEA3"/>
                        <stop offset="1" stop-color="#FAD16D"/>
                        </linearGradient>
                        <linearGradient id="paint1_linear_3972_3064" x1="169.919" y1="44.9656" x2="176.48" y2="44.9656" gradientUnits="userSpaceOnUse">
                        <stop stop-color="#EEC15E"/>
                        <stop offset="0.13" stop-color="#FFF7D9"/>
                        <stop offset="0.23" stop-color="#EEC15E"/>
                        <stop offset="0.35" stop-color="#FCE78C"/>
                        <stop offset="0.47" stop-color="#FFDEAD"/>
                        <stop offset="0.59" stop-color="#EEC15E"/>
                        <stop offset="0.73" stop-color="#FCE78C"/>
                        <stop offset="0.86" stop-color="#EEC15E"/>
                        <stop offset="1" stop-color="#FFF7D9"/>
                        </linearGradient>
                        </defs>
                        </svg>